<?xml version="1.0" encoding="UTF-8"?>
<svg id="Calque_1" data-name="Calque 1" xmlns="http://www.w3.org/2000/svg" viewBox="0 0 100 100">
  <defs>
    <style>
      .cls-1 {
        fill: #fff;
      }
    </style>
  </defs>
  <rect class="cls-1" x="9.86" y="9.1" width="80.19" height="81.86" rx="12" ry="12"/>
  <path d="m22,8c-7.71,0-14,6.29-14,14v56c0,7.71,6.29,14,14,14h56c7.71,0,14-6.29,14-14V22c0-7.71-6.29-14-14-14H22Zm0,4h56c5.55,0,10,4.45,10,10v56c0,5.55-4.45,10-10,10H22c-5.55,0-10-4.45-10-10V22c0-5.55,4.45-10,10-10Zm4.17,14l18.45,26.21-18.62,21.79h5l15.88-18.59,13.08,18.59h15.88l-20.25-28.77,16.42-19.23h-5l-13.68,16.02-11.27-16.02h-15.87Zm7.66,4h6.13l28.21,40h-6.13l-28.21-40Z"/>
</svg>